<svg width="38" height="38" viewBox="0 0 38 38" fill="none" xmlns="http://www.w3.org/2000/svg">
<path d="M8.4884 0.932541H29.2558C33.398 0.932541 36.7558 4.29041 36.7558 8.43254V29.2C36.7558 33.3421 33.398 36.7 29.2558 36.7H8.4884C4.34627 36.7 0.988403 33.3421 0.988403 29.2V8.43254C0.988403 4.2904 4.34627 0.932541 8.4884 0.932541Z" stroke="#FF4500"/>
<path d="M17.8008 17.9571C17.2657 17.9571 16.8433 18.4363 16.8433 19.0208C16.8433 19.6054 17.2751 20.0846 17.8008 20.0846C18.3359 20.0846 18.7584 19.6054 18.7584 19.0208C18.7678 18.4363 18.3359 17.9571 17.8008 17.9571ZM21.2273 17.9571C20.6922 17.9571 20.2698 18.4363 20.2698 19.0208C20.2698 19.6054 20.7016 20.0846 21.2273 20.0846C21.7624 20.0846 22.1849 19.6054 22.1849 19.0208C22.1849 18.4363 21.7624 17.9571 21.2273 17.9571Z" fill="white"/>
<path d="M25.7898 9.91667H13.2102C12.1494 9.91667 11.2857 10.7983 11.2857 11.8908V24.8475C11.2857 25.94 12.1494 26.8217 13.2102 26.8217H23.8559L23.3584 25.0488L24.56 26.1892L25.6959 27.2625L27.7143 29.0833V11.8908C27.7143 10.7983 26.8506 9.91667 25.7898 9.91667ZM22.1661 22.4325C22.1661 22.4325 21.8282 22.0204 21.5465 21.6563C22.7763 21.3017 23.2457 20.5158 23.2457 20.5158C22.8608 20.7746 22.4947 20.9567 22.1661 21.0813C21.6967 21.2825 21.2461 21.4167 20.8049 21.4933C19.9037 21.6658 19.0775 21.6179 18.3735 21.4838C17.8384 21.3783 17.3784 21.225 16.9935 21.0717C16.7775 20.9854 16.5428 20.88 16.3082 20.7458C16.28 20.7267 16.2518 20.7171 16.2237 20.6979C16.2049 20.6883 16.1955 20.6788 16.1861 20.6692C16.0171 20.5733 15.9233 20.5063 15.9233 20.5063C15.9233 20.5063 16.3739 21.2729 17.5661 21.6371C17.2845 22.0013 16.9371 22.4325 16.9371 22.4325C14.8624 22.3654 14.0739 20.9758 14.0739 20.9758C14.0739 17.89 15.4257 15.3888 15.4257 15.3888C16.7775 14.3538 18.0637 14.3825 18.0637 14.3825L18.1575 14.4975C16.4677 14.9958 15.6886 15.7529 15.6886 15.7529C15.6886 15.7529 15.8951 15.6379 16.2424 15.475C17.2469 15.0246 18.0449 14.9 18.3735 14.8713C18.4298 14.8617 18.4767 14.8521 18.5331 14.8521C19.1057 14.7754 19.7535 14.7563 20.4294 14.8329C21.3212 14.9383 22.2788 15.2067 23.2551 15.7529C23.2551 15.7529 22.5135 15.0342 20.9175 14.5358L21.049 14.3825C21.049 14.3825 22.3351 14.3538 23.6869 15.3888C23.6869 15.3888 25.0388 17.89 25.0388 20.9758C25.0388 20.9758 24.2408 22.3654 22.1661 22.4325V22.4325Z" fill="white"/>
</svg>
