<svg width="289" height="36" viewBox="0 0 289 36" fill="none" xmlns="http://www.w3.org/2000/svg">
<path d="M73.018 24C66.6163 24 65.2312 17.2174 63.9466 14.5867L58 0H289V14.3783C289 20.9684 284.708 23.3648 278.271 23.3648C218.802 23.3648 82.1753 24 73.018 24Z" fill="white"/>
<path d="M85.042 16.1562C86.7266 16.1562 87.8984 15.2432 87.8984 13.8076C87.8984 12.5967 87.0781 11.9326 85.7744 11.3174C84.8711 10.8926 84.2754 10.7314 84.2754 10.2627C84.2754 9.85742 84.7148 9.51562 85.3057 9.51562C85.7451 9.51562 86.1992 9.70605 86.4336 10.1748L87.6006 9.35938C87.2441 8.40723 86.3555 7.96289 85.2812 7.96289C83.8359 7.96289 82.6836 8.86133 82.6836 10.2236C82.6836 11.4785 83.6553 11.9619 84.5391 12.4014C85.3643 12.8115 86.3066 13.2656 86.3066 13.8418C86.3066 14.2617 85.8086 14.5645 85.0664 14.5645C84.3877 14.5645 83.8848 14.3105 83.5381 13.7539L82.2734 14.6426C82.8008 15.6191 83.7529 16.1562 85.042 16.1562ZM94.6016 9.68652V8.12891H89.8555V16H94.6016V14.4277H91.4375V12.8018H94.1523V11.2246H91.4375V9.68652H94.6016ZM101.744 8.12891H96.2852V9.69629H98.2236V16H99.8105V9.69629H101.744V8.12891ZM106.602 16.1709C108.276 16.1709 109.639 14.8721 109.639 13.0898V8.12891H108.047V13.085C108.047 13.9395 107.358 14.5693 106.597 14.5693C105.835 14.5693 105.156 13.9443 105.156 13.085V8.12891H103.564V13.0898C103.564 14.8721 104.927 16.1709 106.602 16.1709ZM111.938 16H113.52V13.4414H114.701C116.225 13.4414 117.47 12.25 117.47 10.79C117.47 9.3252 116.225 8.12891 114.701 8.12891H111.938V16ZM114.701 11.8789L113.52 11.874V9.69629H114.701C115.355 9.69629 115.888 10.1797 115.888 10.7754C115.888 11.3857 115.355 11.8838 114.701 11.8789Z" fill="black"/>
<path d="M57.1476 27.2247C59.2416 31.6545 62.2535 36 65 36H12.5C4.60714 36 0 31 0 21.5V0H46.2416C49.0045 7.22917 55.0537 22.7949 57.1476 27.2247Z" fill="#FF4500"/>
<g clip-path="url(#clip0)">
<path d="M16.93 19.6621L18.3718 19.6711C18.5874 20.7805 19.0141 21.8585 19.6609 22.8377L18.6368 23.8528C18.2685 24.2166 18.2685 24.805 18.6278 25.1733L19.7328 26.2917C20.0966 26.66 20.685 26.66 21.0533 26.3007L22.0774 25.2856C23.0476 25.9414 24.1211 26.386 25.2305 26.6106L25.2215 28.0524C25.217 28.5689 25.6347 28.9867 26.1513 28.9912L27.7233 29.0001C28.2399 29.0046 28.6576 28.5869 28.6621 28.0704L28.6711 26.6286C29.7805 26.413 30.8585 25.9863 31.8377 25.3395L32.8528 26.3636C33.2166 26.7319 33.805 26.7319 34.1733 26.3725L35.2917 25.2676C35.66 24.9038 35.66 24.3154 35.3007 23.9471L34.2856 22.923C34.9414 21.9528 35.386 20.8793 35.6106 19.7699L37.0524 19.7789C37.5689 19.7834 37.9867 19.3656 37.9912 18.8491L38.0001 17.277C38.0046 16.7605 37.5869 16.3428 37.0704 16.3383L35.6286 16.3293C35.413 15.2199 34.9863 14.1419 34.3395 13.1627L35.3636 12.1476C35.7319 11.7838 35.7319 11.1954 35.3725 10.8271L34.2676 9.70868C33.9038 9.34036 33.3154 9.34036 32.9471 9.69969L31.923 10.7148C30.9528 10.059 29.8793 9.61435 28.7699 9.38977L28.7789 7.94796C28.7834 7.43143 28.3656 7.01371 27.8491 7.00922L26.277 7.00023C25.7605 6.99574 25.3428 7.41346 25.3383 7.93L25.3248 9.3718C24.2109 9.5874 23.1329 10.0141 22.1582 10.6609L21.1431 9.63681C20.7793 9.2685 20.1909 9.2685 19.8226 9.62783L18.7087 10.7328C18.3404 11.0966 18.3404 11.685 18.6997 12.0533L19.7148 13.0774C19.059 14.0476 18.6144 15.1211 18.3898 16.2305L16.948 16.2215C16.4314 16.217 16.0137 16.6347 16.0092 17.1513L16.0002 18.7233C15.9957 19.2354 16.4135 19.6576 16.93 19.6621ZM24.0537 15.0223C25.6976 13.3963 28.3432 13.4098 29.9691 15.0537C31.5951 16.6976 31.5816 19.3432 29.9377 20.9691C28.2938 22.5951 25.6482 22.5816 24.0223 20.9377C22.3963 19.2938 22.4098 16.6482 24.0537 15.0223Z" fill="black"/>
</g>
<defs>
<clipPath id="clip0">
<rect width="22" height="22" fill="white" transform="translate(16 7)"/>
</clipPath>
</defs>
</svg>
