<svg width="37" height="38" viewBox="0 0 37 38" fill="none" xmlns="http://www.w3.org/2000/svg">
<path d="M8.23254 0.932541H29C33.1421 0.932541 36.5 4.29041 36.5 8.43254V29.2C36.5 33.3421 33.1421 36.7 29 36.7H8.23254C4.09041 36.7 0.732544 33.3421 0.732544 29.2V8.43254C0.732544 4.2904 4.09041 0.932541 8.23254 0.932541Z" stroke="#FF4500"/>
<g clip-path="url(#clip0)">
<path d="M30.1814 16.9894C30.1812 17.5002 29.9823 17.99 29.6281 18.3512C29.274 18.7124 28.7938 18.9155 28.2929 18.9157C27.2498 18.9157 26.4157 18.0531 26.4157 16.9894C26.4157 16.4785 26.6148 15.9885 26.969 15.6272C27.3232 15.266 27.8037 15.063 28.3047 15.063C28.8057 15.063 29.2861 15.266 29.6404 15.6272C29.9946 15.9885 30.1936 16.4785 30.1936 16.9894H30.1814ZM28.2811 13.4093C27.3535 13.4073 26.4629 13.7806 25.8048 14.4473C25.1467 15.1141 24.7747 16.0198 24.7706 16.9659L22.5809 20.1681C22.4887 20.1561 22.3955 20.1561 22.3145 20.1561C21.8415 20.158 21.3776 20.2886 20.9707 20.5344L11.0529 16.4695C10.9254 15.8736 10.6019 15.3401 10.1361 14.9575C9.67039 14.5749 9.09037 14.3662 8.49231 14.366C7.79521 14.3675 7.1271 14.6506 6.63423 15.1534C6.14135 15.6561 5.86386 16.3375 5.86249 17.0484C5.86398 17.7593 6.14151 18.4406 6.63436 18.9433C7.12721 19.446 7.79525 19.7292 8.49231 19.7308C8.96529 19.7289 9.4292 19.5984 9.83617 19.3526L19.7539 23.4174C19.8814 24.0133 20.2049 24.5468 20.6707 24.9294C21.1364 25.312 21.7165 25.5207 22.3145 25.5209C23.6701 25.5209 24.7946 24.4577 24.9213 23.1107L28.2934 20.5939C28.7545 20.5942 29.2111 20.5018 29.6372 20.322C30.0632 20.1422 30.4503 19.8785 30.7764 19.546C31.1024 19.2135 31.361 18.8188 31.5373 18.3843C31.7136 17.9498 31.8042 17.4841 31.8039 17.0139C31.8042 16.5436 31.7136 16.0779 31.5373 15.6434C31.361 15.209 31.1024 14.8142 30.7764 14.4817C30.4503 14.1492 30.0632 13.8855 29.6372 13.7057C29.2111 13.5259 28.7545 13.4335 28.2934 13.4338L28.2811 13.4093ZM28.2811 14.5907C28.9048 14.591 29.5029 14.8439 29.9439 15.2937C30.3849 15.7434 30.6329 16.3533 30.6332 16.9894C30.6329 17.6254 30.3849 18.2353 29.9439 18.6851C29.5029 19.1349 28.9048 19.3877 28.2811 19.3881C27.6575 19.3876 27.0596 19.1347 26.6187 18.6849C26.1777 18.2352 25.9299 17.6253 25.9295 16.9894C25.9299 16.3534 26.1777 15.7436 26.6187 15.2938C27.0596 14.8441 27.6575 14.5912 28.2811 14.5907ZM8.48007 15.0635C9.22143 15.0635 9.85876 15.4888 10.1835 16.1032L9.2219 15.7135C8.44571 15.4298 7.58809 15.8195 7.28731 16.5996C6.97382 17.3796 7.33297 18.2658 8.08609 18.608L8.89711 18.9388C8.76055 18.9721 8.62047 18.9881 8.48007 18.9863C8.22581 18.9868 7.97396 18.9361 7.73897 18.8371C7.50397 18.7381 7.29045 18.5928 7.11067 18.4094C6.93088 18.2261 6.78836 18.0083 6.69129 17.7687C6.59422 17.529 6.54451 17.2722 6.54501 17.0129C6.54451 16.7536 6.59422 16.4968 6.69129 16.2571C6.78836 16.0175 6.93088 15.7997 7.11067 15.6164C7.29045 15.433 7.50397 15.2877 7.73897 15.1887C7.97396 15.0897 8.22581 15.039 8.48007 15.0395V15.0635ZM22.3027 20.8536C22.557 20.853 22.8089 20.9036 23.0439 21.0025C23.2789 21.1014 23.4924 21.2467 23.6723 21.43C23.8521 21.6133 23.9946 21.8311 24.0916 22.0707C24.1887 22.3104 24.2384 22.5672 24.2378 22.8265C24.2383 23.0858 24.1886 23.3426 24.0915 23.5822C23.9944 23.8219 23.8519 24.0396 23.6721 24.2229C23.4923 24.4062 23.2788 24.5515 23.0438 24.6504C22.8088 24.7494 22.557 24.8 22.3027 24.7995C21.9514 24.8011 21.6065 24.7038 21.3059 24.5183C21.0054 24.3328 20.7608 24.0663 20.5993 23.7482C20.9123 23.8783 21.2366 24.0084 21.5501 24.138C21.9285 24.2902 22.3503 24.285 22.725 24.1237C23.0997 23.9623 23.3974 23.6576 23.5543 23.2749C23.629 23.0841 23.6661 22.8801 23.6635 22.6747C23.6608 22.4693 23.6185 22.2664 23.5389 22.0777C23.4592 21.8889 23.3439 21.7181 23.1995 21.5748C23.0551 21.4316 22.8844 21.3188 22.6972 21.2429L21.8979 20.9127C22.0368 20.8771 22.1757 20.8647 22.315 20.8647L22.3027 20.8536Z" fill="white"/>
</g>
<defs>
<clipPath id="clip0">
<rect width="25.9535" height="12.1116" fill="white" transform="translate(5.85583 13.4093)"/>
</clipPath>
</defs>
</svg>
