<svg width="38" height="38" viewBox="0 0 38 38" fill="none" xmlns="http://www.w3.org/2000/svg">
<path d="M8.4884 0.932541H29.2558C33.398 0.932541 36.7558 4.29041 36.7558 8.43254V29.2C36.7558 33.3421 33.398 36.7 29.2558 36.7H8.4884C4.34627 36.7 0.988403 33.3421 0.988403 29.2V8.43254C0.988403 4.2904 4.34627 0.932541 8.4884 0.932541Z" stroke="#FF4500"/>
<path d="M29.167 12.4317C28.3952 12.7718 27.5776 12.9963 26.7403 13.0979C27.6237 12.5692 28.2847 11.7375 28.6003 10.7577C27.7698 11.2498 26.8614 11.5965 25.9142 11.7829C25.3344 11.1658 24.5826 10.7372 23.7564 10.5525C22.9301 10.3678 22.0674 10.4355 21.2801 10.7469C20.4927 11.0582 19.8171 11.5989 19.3407 12.2989C18.8643 12.9988 18.6091 13.8257 18.6083 14.6723C18.6088 14.9969 18.6451 15.3204 18.7164 15.637C17.038 15.5549 15.3955 15.1218 13.8949 14.3656C12.3944 13.6093 11.0691 12.5468 10.0047 11.2465C9.46789 12.1737 9.30332 13.2702 9.54423 14.3141C9.78514 15.358 10.4135 16.2715 11.3023 16.8698C10.6308 16.8485 9.97388 16.6676 9.38611 16.342V16.3983C9.38686 17.3736 9.72494 18.3187 10.3431 19.0732C10.9612 19.8277 11.8212 20.3452 12.7774 20.5378C12.155 20.7048 11.5031 20.73 10.8698 20.6114C11.1388 21.4509 11.6639 22.1851 12.3714 22.7111C13.0789 23.2371 13.9333 23.5284 14.8147 23.5441C13.3181 24.7144 11.4719 25.3481 9.57211 25.3436C9.23526 25.3432 8.89871 25.323 8.56424 25.283C10.4984 26.5291 12.7519 27.1886 15.0526 27.1819C22.8387 27.1819 27.0734 20.7455 27.0734 15.1655C27.0734 14.9795 27.0734 14.7978 27.0734 14.6161C27.8953 14.0179 28.6041 13.2782 29.167 12.4317Z" fill="white"/>
</svg>
