<svg width="289" height="36" viewBox="0 0 289 36" fill="none" xmlns="http://www.w3.org/2000/svg">
<path d="M73.018 24C66.6163 24 65.2312 17.2174 63.9466 14.5867L58 0H289V14.3783C289 20.9684 284.708 23.3648 278.271 23.3648C218.802 23.3648 82.1753 24 73.018 24Z" fill="white"/>
<path d="M86.458 16.1514C87.6494 16.1514 88.4941 15.6338 89.1875 14.9453L88.2793 13.666C87.7568 14.1787 87.1318 14.5645 86.4092 14.5645C85.1934 14.5645 83.9434 13.4805 83.9434 12.0791C83.9434 10.7021 85.1494 9.5791 86.4141 9.5791C87.0928 9.5791 87.7373 9.90137 88.2744 10.4287L89.1875 9.18359C88.3623 8.3877 87.4541 7.98242 86.4287 7.96777C84.2119 7.96777 82.3418 9.84766 82.3418 12.0693C82.3418 14.2812 84.1875 16.1514 86.458 16.1514ZM97.1016 16L94.8652 12.8701C95.71 12.5723 96.3203 11.6885 96.3203 10.6777C96.3203 9.26172 95.1143 8.12891 93.6445 8.12891H91.0762L91.0811 16H92.6631V12.2793L95.168 16H97.1016ZM92.6582 9.69629H93.6738C94.2061 9.69629 94.6895 10.126 94.6895 10.6875C94.6895 11.249 94.2109 11.6836 93.6738 11.6787L92.6582 11.6738V9.69629ZM102.599 16.1514C104.854 16.1514 106.7 14.3154 106.7 12.0742C106.7 9.81348 104.854 7.96777 102.604 7.96777C100.353 7.96777 98.5117 9.81348 98.5117 12.0742C98.5117 14.3154 100.353 16.1514 102.599 16.1514ZM102.599 14.5498C101.227 14.5498 100.108 13.4316 100.108 12.0645C100.108 10.6875 101.227 9.56445 102.599 9.56445C103.976 9.56445 105.099 10.6875 105.099 12.0645C105.099 13.4316 103.976 14.5498 102.599 14.5498ZM111.089 16.1562C112.773 16.1562 113.945 15.2432 113.945 13.8076C113.945 12.5967 113.125 11.9326 111.821 11.3174C110.918 10.8926 110.322 10.7314 110.322 10.2627C110.322 9.85742 110.762 9.51562 111.353 9.51562C111.792 9.51562 112.246 9.70605 112.48 10.1748L113.647 9.35938C113.291 8.40723 112.402 7.96289 111.328 7.96289C109.883 7.96289 108.73 8.86133 108.73 10.2236C108.73 11.4785 109.702 11.9619 110.586 12.4014C111.411 12.8115 112.354 13.2656 112.354 13.8418C112.354 14.2617 111.855 14.5645 111.113 14.5645C110.435 14.5645 109.932 14.3105 109.585 13.7539L108.32 14.6426C108.848 15.6191 109.8 16.1562 111.089 16.1562ZM118.261 16.1562C119.945 16.1562 121.117 15.2432 121.117 13.8076C121.117 12.5967 120.297 11.9326 118.993 11.3174C118.09 10.8926 117.494 10.7314 117.494 10.2627C117.494 9.85742 117.934 9.51562 118.524 9.51562C118.964 9.51562 119.418 9.70605 119.652 10.1748L120.819 9.35938C120.463 8.40723 119.574 7.96289 118.5 7.96289C117.055 7.96289 115.902 8.86133 115.902 10.2236C115.902 11.4785 116.874 11.9619 117.758 12.4014C118.583 12.8115 119.525 13.2656 119.525 13.8418C119.525 14.2617 119.027 14.5645 118.285 14.5645C117.606 14.5645 117.104 14.3105 116.757 13.7539L115.492 14.6426C116.02 15.6191 116.972 16.1562 118.261 16.1562ZM127.479 8.12891V11.2783H124.651V8.12891H123.074V16H124.651V12.8457H127.479V16H129.056V8.12891H127.479ZM136.706 16H138.42L134.655 7.93359H134.606L130.847 16H132.556L133.059 14.9014H136.208L136.706 16ZM133.674 13.5537L134.636 11.4492L135.593 13.5537H133.674ZM140.211 16H141.793V8.12891H140.211V16ZM150.186 16L147.949 12.8701C148.794 12.5723 149.404 11.6885 149.404 10.6777C149.404 9.26172 148.198 8.12891 146.729 8.12891H144.16L144.165 16H145.747V12.2793L148.252 16H150.186ZM145.742 9.69629H146.758C147.29 9.69629 147.773 10.126 147.773 10.6875C147.773 11.249 147.295 11.6836 146.758 11.6787L145.742 11.6738V9.69629Z" fill="black"/>
<path d="M57.1476 27.2247C59.2416 31.6545 62.2535 36 65 36H12.5C4.60714 36 0 31 0 21.5V0H46.2416C49.0045 7.22917 55.0537 22.7949 57.1476 27.2247Z" fill="#FF4500"/>
<path d="M36.4692 16.7516H35.1353C34.5769 12.6566 31.3304 9.415 27.2338 8.86474L27.2306 7.52919C27.2298 7.23745 27.0718 7 26.874 7L25.1219 7.00162C24.9258 7.00162 24.7662 7.23907 24.7662 7.53324L24.7678 8.86474C20.6744 9.41581 17.4272 12.659 16.868 16.7516H15.5308C15.2374 16.7516 15 16.9104 15 17.1082V18.8602C15 19.0564 15.2374 19.216 15.5308 19.216H16.8631C17.4093 23.3248 20.6623 26.5826 24.767 27.1345L24.7702 28.4684C24.7702 28.7626 24.9282 29 25.126 29L26.8764 28.9968C27.0742 28.9968 27.2322 28.7593 27.2322 28.4668V27.1336C31.3377 26.5826 34.5939 23.3239 35.1385 19.2152H36.4684C36.7626 19.2152 37 19.0555 37 18.8594V17.1073C37.0008 16.9104 36.7634 16.7516 36.4692 16.7516ZM29.6804 19.216H31.811C31.5768 20.3433 31.0225 21.3668 30.1967 22.195C29.3701 23.0217 28.3465 23.5735 27.216 23.8078V21.6772C27.216 21.5143 27.0831 21.383 26.9218 21.383H25.0798C24.9169 21.383 24.7856 21.5143 24.7856 21.6772V23.8078C23.6567 23.5735 22.6316 23.0208 21.8066 22.195C20.9808 21.3676 20.4281 20.3433 20.1947 19.216H22.326C22.4873 19.216 22.6202 19.0831 22.6202 18.9202V17.0798C22.6202 16.9169 22.4873 16.784 22.326 16.784H20.1947C20.4281 15.6583 20.9816 14.6332 21.8066 13.8066C22.6332 12.9792 23.6575 12.4248 24.7856 12.1922V14.3244C24.7856 14.4857 24.9169 14.617 25.0798 14.617H26.9218C27.0831 14.617 27.216 14.4857 27.216 14.3244V12.1914C28.3449 12.424 29.3701 12.9783 30.1967 13.8058C31.0233 14.6324 31.5768 15.6575 31.811 16.7832H29.6804C29.5176 16.7832 29.3863 16.9161 29.3863 17.079V18.9194C29.3855 19.0831 29.5176 19.216 29.6804 19.216Z" fill="black"/>
</svg>
