<svg width="37" height="37" viewBox="0 0 37 37" fill="none" xmlns="http://www.w3.org/2000/svg">
<path d="M8 0.5H28.7674C32.9096 0.5 36.2674 3.85786 36.2674 8V28.7674C36.2674 32.9096 32.9096 36.2674 28.7674 36.2674H8C3.85786 36.2674 0.5 32.9096 0.5 28.7674V8C0.5 3.85786 3.85786 0.5 8 0.5Z" stroke="#FF4500"/>
<path d="M18.3837 9.94883C21.1305 9.94883 21.4592 9.94884 22.5449 10.0094C23.1981 10.0151 23.8451 10.1351 24.4568 10.3641C24.8996 10.5361 25.3017 10.7983 25.6376 11.1342C25.9735 11.47 26.2357 11.8721 26.4077 12.3149C26.6366 12.9266 26.7567 13.5737 26.7624 14.2268C26.8143 15.3126 26.8229 15.6413 26.8229 18.388C26.8229 21.1348 26.8229 21.4635 26.7624 22.5493C26.7567 23.2024 26.6366 23.8495 26.4077 24.4612C26.2357 24.9039 25.9735 25.3061 25.6376 25.6419C25.3017 25.9778 24.8996 26.24 24.4568 26.412C23.8451 26.641 23.1981 26.761 22.5449 26.7667C21.4592 26.8186 21.1348 26.8273 18.3837 26.8273C15.6327 26.8273 15.3082 26.8273 14.2225 26.7667C13.5694 26.761 12.9223 26.641 12.3106 26.412C11.8679 26.24 11.4657 25.9778 11.1299 25.6419C10.794 25.3061 10.5317 24.9039 10.3598 24.4612C10.1308 23.8495 10.0108 23.2024 10.0051 22.5493C9.95318 21.4635 9.94452 21.1348 9.94452 18.388C9.94452 15.6413 9.94452 15.3126 10.0051 14.2268C10.0108 13.5737 10.1308 12.9266 10.3598 12.3149C10.5317 11.8721 10.794 11.47 11.1299 11.1342C11.4657 10.7983 11.8679 10.5361 12.3106 10.3641C12.9223 10.1351 13.5694 10.0151 14.2225 10.0094C15.3082 9.95749 15.637 9.94883 18.3837 9.94883ZM18.3837 8.09317C15.5894 8.09317 15.239 8.09315 14.1403 8.15371C13.2858 8.17137 12.4404 8.33374 11.6401 8.63387C10.9505 8.89658 10.3242 9.30215 9.80237 9.82398C9.28054 10.3458 8.87494 10.9721 8.61223 11.6618C8.3121 12.4621 8.14976 13.3074 8.1321 14.1619C8.08452 15.2606 8.07153 15.611 8.07153 18.4053C8.07153 21.1997 8.07154 21.55 8.1321 22.6487C8.14976 23.5033 8.3121 24.3486 8.61223 25.1489C8.87494 25.8386 9.28054 26.4649 9.80237 26.9867C10.3242 27.5085 10.9505 27.9141 11.6401 28.1768C12.4404 28.477 13.2858 28.6393 14.1403 28.657C15.239 28.7046 15.5894 28.7175 18.3837 28.7175C21.1781 28.7175 21.5284 28.7175 22.6271 28.657C23.4817 28.6393 24.327 28.477 25.1273 28.1768C25.817 27.9141 26.4433 27.5085 26.9651 26.9867C27.4869 26.4649 27.8925 25.8386 28.1552 25.1489C28.4554 24.3486 28.6177 23.5033 28.6354 22.6487C28.6829 21.55 28.6959 21.1997 28.6959 18.4053C28.6959 15.611 28.6959 15.2606 28.6354 14.1619C28.6177 13.3074 28.4554 12.4621 28.1552 11.6618C27.8925 10.9721 27.4869 10.3458 26.9651 9.82398C26.4433 9.30215 25.817 8.89658 25.1273 8.63387C24.327 8.33374 23.4817 8.17137 22.6271 8.15371C21.5284 8.10613 21.1781 8.09317 18.3837 8.09317Z" fill="white"/>
<path d="M18.3837 13.0979C17.3383 13.0979 16.3163 13.4079 15.4471 13.9887C14.5778 14.5695 13.9003 15.3951 13.5002 16.3609C13.1002 17.3268 12.9955 18.3896 13.1994 19.415C13.4034 20.4403 13.9068 21.3822 14.646 22.1214C15.3853 22.8607 16.3271 23.3641 17.3525 23.568C18.3778 23.772 19.4407 23.6673 20.4065 23.2672C21.3724 22.8672 22.1979 22.1897 22.7788 21.3204C23.3596 20.4511 23.6696 19.4292 23.6696 18.3837C23.6696 16.9818 23.1127 15.6373 22.1214 14.6461C21.1301 13.6548 19.7856 13.0979 18.3837 13.0979ZM18.3837 21.8139C17.7053 21.8139 17.0421 21.6127 16.478 21.2358C15.9139 20.8589 15.4743 20.3232 15.2146 19.6964C14.955 19.0696 14.8871 18.3799 15.0194 17.7145C15.1518 17.0491 15.4785 16.4379 15.9582 15.9582C16.4379 15.4785 17.0491 15.1518 17.7145 15.0194C18.3799 14.8871 19.0696 14.955 19.6964 15.2147C20.3232 15.4743 20.8589 15.9139 21.2358 16.478C21.6127 17.0421 21.8139 17.7053 21.8139 18.3837C21.8139 19.2935 21.4525 20.166 20.8092 20.8092C20.1659 21.4525 19.2935 21.8139 18.3837 21.8139Z" fill="white"/>
<path d="M23.8772 14.1273C24.5604 14.1273 25.1143 13.5735 25.1143 12.8902C25.1143 12.207 24.5604 11.6531 23.8772 11.6531C23.1939 11.6531 22.6401 12.207 22.6401 12.8902C22.6401 13.5735 23.1939 14.1273 23.8772 14.1273Z" fill="white"/>
</svg>
