<svg width="289" height="36" viewBox="0 0 289 36" fill="none" xmlns="http://www.w3.org/2000/svg">
<path d="M73.018 24C66.6163 24 65.2312 17.2174 63.9466 14.5867L58 0H289V14.3783C289 20.9684 284.708 23.3648 278.271 23.3648C218.802 23.3648 82.1753 24 73.018 24Z" fill="white"/>
<path d="M87.6641 8.12891H82.2051V9.69629H84.1436V16H85.7305V9.69629H87.6641V8.12891ZM91.5352 16.0977H91.623L93.5713 11.8203L95.5488 16.0977H95.6416L98.2051 8.12891H96.4961L95.29 12.0938L93.6055 8.1582H93.5762L91.8867 12.0986L90.6758 8.12891H88.9717L91.5352 16.0977ZM99.9961 16H101.578V8.12891H99.9961V16ZM108.926 8.12891H103.467V9.69629H105.405V16H106.992V9.69629H108.926V8.12891ZM114.198 16.1514C115.39 16.1514 116.234 15.6338 116.928 14.9453L116.02 13.666C115.497 14.1787 114.872 14.5645 114.149 14.5645C112.934 14.5645 111.684 13.4805 111.684 12.0791C111.684 10.7021 112.89 9.5791 114.154 9.5791C114.833 9.5791 115.478 9.90137 116.015 10.4287L116.928 9.18359C116.103 8.3877 115.194 7.98242 114.169 7.96777C111.952 7.96777 110.082 9.84766 110.082 12.0693C110.082 14.2812 111.928 16.1514 114.198 16.1514ZM123.221 8.12891V11.2783H120.394V8.12891H118.816V16H120.394V12.8457H123.221V16H124.798V8.12891H123.221Z" fill="black"/>
<path d="M57.1476 27.2247C59.2416 31.6545 62.2535 36 65 36H12.5C4.60714 36 0 31 0 21.5V0H46.2416C49.0045 7.22917 55.0537 22.7949 57.1476 27.2247Z" fill="#FF4500"/>
<path d="M35.4391 18.7734L32.2677 21.9448H27.2933L24.5781 24.6601V21.9448H20.4943V8.80294H35.4391V18.7734ZM18.6696 7L17.7573 10.6276V26.9409H21.8411V29.2H24.1002L26.3593 26.9409H30.0086L37.2638 19.6857V7H18.6696Z" fill="black"/>
<path d="M25.4687 17.8611H27.2716V12.4305H25.4687V17.8611ZM30.4648 17.8611H32.2677V12.4305H30.4648V17.8611Z" fill="black"/>
</svg>
